<svg xmlns="http://www.w3.org/2000/svg" version="1.0" width="640.000000pt" height="640.000000pt" viewBox="0 0 640.000000 640.000000" preserveAspectRatio="xMidYMid meet">

<g transform="translate(0.000000,640.000000) scale(0.100000,-0.100000)" fill="currentColor" stroke="none">
<path d="M0 3200 l0 -3200 3200 0 3200 0 0 3200 0 3200 -3200 0 -3200 0 0 -3200z m3615 2970 c257 -39 465 -95 691 -185 766 -308 1379 -926 1678 -1691 90 -230 147 -452 183 -705 27 -192 24 -615 -6 -809 -95 -620 -351 -1160 -762 -1607 -999 -1085 -2637 -1285 -3859 -471 -197 131 -289 206 -461 378 -164 162 -273 295 -395 480 -675 1022 -651 2370 60 3372 509 718 1297 1172 2179 1258 156 15 532 4 692 -20z" fill="#c40c00"/>
<path d="M2023 5729 l-33 -10 0 -264 0 -264 -88 -60 c-550 -370 -903 -928 -1009 -1596 -24 -156 -24 -508 0 -665 80 -511 297 -944 650 -1302 355 -359 801 -584 1317 -665 160 -25 510 -25 670 0 767 120 1406 588 1745 1279 119 242 195 502 226 778 15 135 6 482 -16 610 -126 740 -580 1362 -1238 1699 -312 160 -622 238 -978 248 -299 9 -526 -22 -790 -107 -70 -22 -129 -40 -133 -40 -3 0 -6 76 -6 169 0 144 -2 171 -17 182 -20 17 -251 23 -300 8z m1436 -345 c962 -112 1743 -863 1906 -1834 22 -132 31 -420 16 -561 -70 -674 -427 -1262 -991 -1631 -675 -442 -1565 -474 -2265 -80 -82 46 -281 178 -290 192 -2 4 30 10 73 14 375 33 884 115 1385 223 l27 5 0 -100 c0 -92 2 -103 24 -129 l24 -28 399 0 c389 0 400 1 473 23 186 58 330 162 392 285 63 127 85 298 53 421 -24 93 -83 195 -145 253 -30 28 -61 58 -68 65 -8 7 -28 38 -47 70 l-32 56 48 48 c141 139 167 427 56 617 -37 62 -127 141 -200 176 -126 59 -163 64 -522 70 -212 4 -319 9 -300 15 17 5 89 24 160 43 671 178 942 326 845 463 -50 70 -171 95 -595 125 -270 19 -314 24 -291 37 59 33 604 208 801 257 66 17 152 41 190 55 l70 25 -65 0 c-206 2 -1012 -194 -1213 -296 -158 -79 -98 -142 191 -198 103 -20 577 -85 621 -85 31 0 3 -21 -60 -45 -166 -64 -421 -128 -885 -224 l-341 -71 -282 0 -281 0 0 795 c0 754 1 795 18 804 10 5 72 28 139 50 128 43 315 84 448 99 130 15 370 13 514 -4z m-1469 -1145 c0 -791 1 -820 33 -841 6 -4 -17 -36 -56 -77 -52 -56 -70 -82 -82 -126 -15 -51 -15 -59 0 -104 20 -63 92 -136 185 -192 199 -118 595 -236 1095 -327 l150 -28 0 -249 0 -249 -50 -13 c-140 -36 -724 -123 -1090 -162 -321 -35 -343 -39 -397 -68 -57 -31 -107 -85 -123 -133 l-11 -32 -72 77 c-294 315 -491 729 -559 1175 -23 156 -23 461 1 624 74 508 326 980 704 1319 95 86 254 206 265 200 4 -2 7 -360 7 -794z m1328 -1116 l2 -243 -29 0 c-35 0 -247 30 -451 65 -386 65 -620 159 -620 249 0 32 92 70 335 136 l140 38 310 -1 310 -2 3 -242z m701 187 c172 -28 261 -138 261 -322 0 -82 -30 -182 -68 -227 l-28 -34 -109 26 c-61 14 -189 38 -285 52 -96 15 -181 29 -187 31 -10 3 -13 60 -13 244 l0 240 183 0 c100 0 211 -5 246 -10z m-2 -896 c28 -8 34 -45 15 -85 -30 -61 -140 -123 -330 -185 -57 -19 -105 -34 -108 -34 -2 0 -4 70 -4 155 l0 155 203 0 c111 0 212 -3 224 -6z m380 -271 c5 -16 8 -68 8 -118 -1 -108 -21 -160 -89 -233 -94 -100 -207 -125 -541 -120 l-180 3 -3 55 -3 56 93 28 c275 83 569 228 662 325 36 38 44 38 53 4z" fill="#c40c00"/>
</g>
</svg>

